<svg id="Слой_1" data-name="Слой 1" xmlns="http://www.w3.org/2000/svg" viewBox="0 0 22.68 22.68">
  <title>1621</title>
  <path d="M4.25,0H18.43a4.27,4.27,0,0,1,4.25,4.25V18.43a4.27,4.27,0,0,1-4.25,4.25H4.25A4.27,4.27,0,0,1,0,18.43V4.25A4.26,4.26,0,0,1,4.25,0" style="fill: #2f2483;fill-rule: evenodd"/>
  <g>
    <path d="M11.34,17.91A6.56,6.56,0,1,1,16,16,6.53,6.53,0,0,1,11.34,17.91ZM11.34,5a6.3,6.3,0,1,0,6.3,6.3A6.31,6.31,0,0,0,11.34,5Z" style="fill: #d9dada;stroke: #d9dada;stroke-miterlimit: 10;stroke-width: 0.28346456692913385px"/>
    <path d="M12.39,4.52h0a6.47,6.47,0,0,0-2.06,0,.15.15,0,0,1-.13,0,.14.14,0,0,1,0-.14l1.05-2.95a.14.14,0,0,1,.26,0l1,3a.14.14,0,0,1,0,.14A.16.16,0,0,1,12.39,4.52Zm-1.05-.36a8.08,8.08,0,0,1,.85,0l-.85-2.37-.85,2.37A8.08,8.08,0,0,1,11.34,4.16Z" style="fill: #d9dada;stroke: #d9dada;stroke-miterlimit: 10;stroke-width: 0.28346456692913385px"/>
    <path d="M5.67,7.3h0a.12.12,0,0,1-.11-.08L4.2,4.39a.14.14,0,0,1,.19-.19L7.22,5.55a.12.12,0,0,1,.08.11.12.12,0,0,1,0,.12,8.57,8.57,0,0,0-.79.68,8.57,8.57,0,0,0-.68.79A.13.13,0,0,1,5.67,7.3Zm-1-2.68L5.7,6.9q.27-.33.57-.63T6.9,5.7Z" style="fill: #d9dada;stroke: #d9dada;stroke-miterlimit: 10;stroke-width: 0.28346456692913385px"/>
    <path d="M4.38,12.53h0l-2.95-1a.14.14,0,0,1,0-.26l3-1.05a.14.14,0,0,1,.14,0,.15.15,0,0,1,0,.13,6.93,6.93,0,0,0-.08,1,7.15,7.15,0,0,0,.08,1,.15.15,0,0,1,0,.13ZM1.84,11.34l2.37.85a8.08,8.08,0,0,1,0-.85,7.92,7.92,0,0,1,0-.85Z" style="fill: #d9dada;stroke: #d9dada;stroke-miterlimit: 10;stroke-width: 0.28346456692913385px"/>
    <path d="M4.33,18.49a.18.18,0,0,1-.1,0,.16.16,0,0,1,0-.16l1.35-2.84a.12.12,0,0,1,.11-.07.11.11,0,0,1,.12,0,8.57,8.57,0,0,0,.68.79,7.18,7.18,0,0,0,.79.67.15.15,0,0,1,0,.13.13.13,0,0,1-.08.11L4.39,18.47ZM5.7,15.78,4.62,18.06,6.9,17q-.33-.27-.63-.57T5.7,15.78Z" style="fill: #d9dada;stroke: #d9dada;stroke-miterlimit: 10;stroke-width: 0.28346456692913385px"/>
    <path d="M11.34,21.39a.14.14,0,0,1-.13-.09l-1.05-3a.13.13,0,0,1,0-.13.13.13,0,0,1,.13-.05,7.11,7.11,0,0,0,2.06,0,.13.13,0,0,1,.13.05.13.13,0,0,1,0,.13l-1,3A.14.14,0,0,1,11.34,21.39Zm-.85-2.93.85,2.38.85-2.38A6.91,6.91,0,0,1,10.49,18.46Z" style="fill: #d9dada;stroke: #d9dada;stroke-miterlimit: 10;stroke-width: 0.28346456692913385px"/>
    <path d="M18.35,18.49l-.06,0-2.84-1.34a.14.14,0,0,1-.07-.11.13.13,0,0,1,0-.13,6.32,6.32,0,0,0,1.46-1.46.13.13,0,0,1,.13,0,.14.14,0,0,1,.11.07l1.34,2.84a.14.14,0,0,1,0,.16A.21.21,0,0,1,18.35,18.49ZM15.78,17l2.28,1.08L17,15.78q-.27.33-.57.63T15.78,17Z" style="fill: #d9dada;stroke: #d9dada;stroke-miterlimit: 10;stroke-width: 0.28346456692913385px"/>
    <path d="M18.3,12.53a.12.12,0,0,1-.09,0,.13.13,0,0,1-.05-.13,7.15,7.15,0,0,0,.08-1,6.93,6.93,0,0,0-.08-1,.13.13,0,0,1,.05-.13.13.13,0,0,1,.13,0l3,1.05a.14.14,0,0,1,0,.26l-3,1Zm.16-2a6.06,6.06,0,0,1,.05.85,6.06,6.06,0,0,1-.05.85l2.38-.85Z" style="fill: #d9dada;stroke: #d9dada;stroke-miterlimit: 10;stroke-width: 0.28346456692913385px"/>
    <path d="M17,7.3a.16.16,0,0,1-.11,0,7.18,7.18,0,0,0-.67-.79,8.57,8.57,0,0,0-.79-.68.11.11,0,0,1,0-.12.12.12,0,0,1,.07-.11L18.29,4.2a.16.16,0,0,1,.16,0,.14.14,0,0,1,0,.16L17.13,7.22A.12.12,0,0,1,17,7.3ZM15.78,5.7q.33.27.63.57T17,6.9l1.08-2.28Z" style="fill: #d9dada;stroke: #d9dada;stroke-miterlimit: 10;stroke-width: 0.28346456692913385px"/>
  </g>
</svg>
